<?xml version="1.0" standalone="no"?>
<!DOCTYPE svg PUBLIC "-//W3C//DTD SVG 20010904//EN"
 "http://www.w3.org/TR/2001/REC-SVG-20010904/DTD/svg10.dtd">
<svg version="1.0" xmlns="http://www.w3.org/2000/svg"
 width="455.000000pt" height="455.000000pt" viewBox="0 0 455.000000 455.000000"
 preserveAspectRatio="xMidYMid meet">
<metadata>
Created by potrace 1.14, written by Peter Selinger 2001-2017
</metadata>
<g transform="translate(0.000000,455.000000) scale(0.100000,-0.100000)"
fill="#000000" stroke="none">
<path d="M1446 3970 c-116 -42 -170 -97 -204 -210 -6 -19 -38 -120 -71 -225
-33 -104 -90 -284 -126 -400 -64 -202 -200 -619 -271 -832 -19 -56 -34 -109
-34 -118 0 -13 31 -15 240 -15 l239 0 20 68 c81 282 133 474 211 777 32 123
70 260 99 349 l18 60 11 -35 c6 -19 21 -74 32 -124 11 -49 37 -153 56 -230 20
-77 44 -178 54 -225 19 -88 70 -305 94 -400 8 -30 29 -118 47 -195 34 -148
137 -559 268 -1071 43 -171 88 -330 99 -355 45 -97 145 -162 259 -167 109 -6
180 34 251 140 24 37 27 50 26 127 -1 88 -23 172 -179 661 -20 63 -56 180 -80
260 -24 80 -71 233 -105 340 -34 107 -68 216 -76 242 -16 61 -90 296 -114 368
-10 30 -44 136 -75 235 -31 99 -70 223 -87 275 -73 235 -162 488 -188 540 -16
32 -42 71 -59 87 -81 81 -240 114 -355 73z"/>
<path d="M2519 3869 c-103 -7 -184 -40 -221 -90 -50 -67 -62 -101 -63 -174 0
-64 3 -74 34 -117 33 -46 85 -87 139 -110 18 -8 162 -14 432 -19 447 -7 461
-9 597 -76 128 -62 225 -162 274 -283 34 -84 42 -133 41 -240 -3 -149 -59
-277 -169 -381 -153 -146 -276 -175 -757 -177 -120 0 -220 -3 -223 -6 -2 -2
22 -98 55 -213 33 -114 65 -228 72 -252 l11 -43 272 5 c150 3 288 8 307 11 52
9 212 54 256 72 339 140 582 424 663 774 18 82 20 94 26 191 20 319 -154 684
-426 888 -152 115 -365 202 -564 231 -80 11 -627 18 -756 9z"/>
<path d="M2345 3100 c-6 -9 53 -218 96 -340 11 -30 33 -102 50 -160 17 -57 36
-108 42 -112 7 -4 58 -8 115 -8 l102 0 0 315 0 315 -199 0 c-122 0 -202 -4
-206 -10z"/>
<path d="M500 1919 c-128 -6 -155 -14 -218 -66 -67 -55 -82 -86 -82 -169 0
-83 15 -126 61 -172 70 -71 23 -67 756 -70 654 -3 663 -2 683 18 11 11 20 31
20 45 0 55 -123 326 -167 366 -59 55 -46 54 -508 54 -236 0 -482 -3 -545 -6z"/>
<path d="M460 1335 c-6 -19 -20 -67 -30 -107 -10 -40 -30 -111 -45 -158 -36
-115 -44 -233 -19 -285 55 -116 210 -189 331 -156 23 6 63 26 90 44 63 43 101
119 147 292 19 72 51 187 70 258 20 70 36 132 36 137 0 6 -106 10 -284 10
l-284 0 -12 -35z"/>
</g>
</svg>
